<?xml version="1.0" standalone="no"?>
<!DOCTYPE svg PUBLIC "-//W3C//DTD SVG 20010904//EN"
 "http://www.w3.org/TR/2001/REC-SVG-20010904/DTD/svg10.dtd">
<svg version="1.0" xmlns="http://www.w3.org/2000/svg"
 width="425.000000pt" height="289.000000pt" viewBox="0 0 425.000000 289.000000"
 preserveAspectRatio="xMidYMid meet">

<g transform="translate(0.000000,289.000000) scale(0.100000,-0.100000)"
fill="#000000" stroke="none">
<path d="M2358 2874 c-34 -18 -36 -34 -4 -34 33 0 114 -45 159 -88 128 -124
94 -320 -77 -444 -33 -23 -49 -28 -100 -28 -78 0 -121 22 -163 83 -43 64 -59
144 -44 222 16 88 63 178 113 214 45 33 38 40 -16 17 -55 -23 -111 -81 -142
-148 -26 -56 -29 -74 -29 -163 0 -89 3 -107 26 -152 l27 -51 -51 -6 c-28 -4
-66 -14 -86 -22 -19 -8 -42 -12 -50 -8 -9 4 -67 10 -129 14 -62 5 -116 10
-118 13 -3 3 16 26 41 52 67 66 100 142 100 230 0 90 -28 144 -103 196 -65 46
-150 69 -166 47 -6 -8 -30 -17 -53 -20 -92 -13 -211 -94 -255 -174 -43 -81
-52 -126 -34 -187 9 -31 28 -64 46 -82 16 -16 30 -32 30 -36 0 -4 -15 -10 -34
-13 -19 -4 -49 -17 -67 -29 -31 -21 -37 -22 -69 -10 -19 7 -54 17 -78 23 l-43
11 34 40 c62 71 73 180 28 266 -44 85 -155 162 -233 163 -21 0 -38 5 -38 10 0
6 -10 10 -22 10 -40 0 -107 -41 -157 -96 -107 -116 -120 -270 -34 -383 22 -28
23 -33 8 -27 -147 56 -225 11 -340 -195 -32 -57 -86 -145 -120 -195 -70 -102
-103 -180 -112 -264 -5 -49 -2 -65 21 -111 32 -65 86 -145 112 -164 41 -31 99
-11 154 51 38 44 70 114 70 155 0 29 31 103 48 113 14 8 23 -503 12 -654 -5
-74 -18 -166 -28 -205 -35 -131 -101 -273 -167 -361 -60 -80 -49 -177 30 -259
82 -84 194 -110 265 -62 40 26 58 79 90 261 34 196 60 319 72 333 22 27 92
-35 238 -210 36 -43 76 -80 88 -84 22 -5 23 -9 15 -42 -13 -57 -8 -143 10
-177 9 -18 39 -57 67 -87 78 -86 141 -88 213 -7 47 51 79 122 132 296 85 273
171 468 199 445 6 -5 39 -53 71 -106 33 -53 74 -112 92 -131 l31 -35 -27 -97
c-15 -53 -47 -140 -69 -193 -48 -110 -53 -165 -22 -216 54 -90 243 -110 293
-31 9 12 43 130 76 260 69 268 166 610 182 640 6 11 13 17 17 14 3 -4 34 -116
68 -249 73 -290 146 -522 177 -568 55 -82 161 -18 271 166 52 85 48 112 -32
218 l-44 57 73 96 c128 167 172 190 220 111 75 -119 186 -392 228 -562 31
-123 40 -141 80 -157 65 -24 195 62 241 159 32 69 24 124 -37 243 l-49 97 41
50 c22 28 52 66 66 84 l25 33 47 -47 c109 -108 204 -295 216 -425 6 -65 11
-78 35 -98 33 -29 57 -30 116 -3 98 44 150 121 150 222 0 131 -53 261 -153
373 -87 99 -112 158 -111 264 4 387 10 540 21 551 18 18 23 10 43 -85 32 -144
59 -180 137 -180 28 0 42 8 69 36 44 49 59 104 58 223 0 145 -42 285 -117 397
-51 75 -100 115 -166 138 l-50 17 44 21 c133 65 152 257 34 345 -26 19 -119
37 -119 23 0 -4 14 -28 32 -53 87 -127 89 -241 5 -304 -27 -20 -46 -25 -121
-28 -137 -5 -200 23 -237 103 -39 85 -14 195 54 237 32 20 59 21 157 4 19 -3
42 -1 50 4 12 8 12 12 -3 29 -26 28 -84 34 -152 16 -186 -48 -287 -208 -205
-323 12 -18 21 -33 19 -35 -51 -39 -49 -39 -108 17 -31 30 -65 58 -76 65 -20
10 -19 11 7 39 37 39 67 102 79 164 15 77 14 102 -5 132 -32 48 -186 111 -186
76 0 -7 16 -31 35 -55 72 -87 81 -178 28 -275 -59 -109 -193 -138 -283 -62
-54 45 -75 97 -75 188 0 87 20 142 73 198 23 25 32 27 98 27 56 0 77 4 95 19
22 18 22 20 6 26 -30 12 -140 0 -182 -20 -58 -28 -132 -107 -163 -173 -32 -69
-37 -168 -9 -219 l17 -31 -33 -7 c-17 -4 -48 -15 -67 -25 -35 -18 -36 -18 -58
5 -27 29 -118 50 -171 40 l-36 -7 55 40 c136 99 192 248 140 370 -50 116 -217
217 -292 176z m-751 -130 c75 -50 106 -100 111 -179 11 -165 -104 -291 -247
-271 -89 12 -153 75 -173 169 -30 142 62 297 176 297 23 0 48 5 56 10 20 13
16 14 77 -26z m-767 -56 c67 -41 115 -102 136 -175 18 -63 13 -109 -19 -166
-55 -99 -182 -102 -274 -7 -83 85 -98 257 -31 353 17 24 25 27 77 27 46 0 67
-6 111 -32z m644 -438 c23 0 55 4 73 9 24 7 40 5 70 -10 25 -12 81 -23 151
-31 62 -6 112 -14 112 -18 0 -7 -41 -127 -59 -174 -9 -22 -15 -26 -23 -18 -7
7 -28 12 -48 12 -62 0 -110 -67 -110 -155 0 -35 6 -52 30 -78 l30 -35 -79 -85
c-44 -47 -87 -100 -96 -118 -24 -46 -23 -110 4 -147 37 -52 109 -109 154 -122
43 -12 44 -12 55 -71 23 -127 105 -249 167 -249 14 0 25 -5 25 -11 0 -29 -64
-239 -70 -232 -4 4 -44 54 -89 110 -120 149 -138 158 -201 95 -41 -41 -98
-177 -195 -462 -56 -165 -108 -294 -126 -317 -29 -34 -105 5 -145 73 -22 37
-26 54 -22 92 3 26 56 180 118 342 l113 295 2 385 c2 406 -1 437 -43 459 -34
18 -57 13 -88 -21 -47 -51 -89 -124 -147 -254 -63 -143 -63 -144 -86 -144 -40
0 -82 71 -83 140 0 39 8 61 41 117 23 38 77 148 122 244 136 295 180 359 269
389 38 13 52 14 89 3 24 -7 63 -13 85 -13z m745 -10 c32 -8 127 2 139 15 3 3
10 1 16 -4 6 -4 38 -11 71 -15 150 -17 173 -35 210 -166 37 -134 87 -215 210
-336 112 -110 138 -148 138 -208 0 -33 -7 -45 -36 -73 -69 -63 -69 -63 -315
295 -35 51 -74 99 -87 108 -21 14 -26 14 -53 0 -54 -28 -64 -74 -73 -326 -4
-124 -10 -261 -13 -305 -8 -107 4 -168 69 -329 69 -173 133 -300 201 -402 80
-119 74 -158 -38 -258 -35 -31 -66 -56 -69 -56 -25 0 -149 409 -220 723 -21
96 -47 147 -75 147 -7 0 -27 -12 -44 -28 -24 -21 -38 -51 -65 -142 -19 -63
-68 -212 -110 -330 -104 -292 -114 -324 -125 -399 -13 -93 -43 -111 -124 -71
-72 35 -73 39 -20 228 25 92 79 273 120 402 41 129 78 262 83 295 6 33 12 150
16 260 3 110 12 243 20 295 26 171 16 280 -27 288 -23 4 -85 -53 -123 -113
-17 -27 -62 -128 -99 -222 -38 -95 -73 -173 -79 -173 -21 0 -80 54 -108 98
-52 81 -47 94 87 247 140 161 254 370 254 469 0 57 26 77 116 91 43 7 88 11
99 8 11 -2 35 -8 54 -13z m-1649 -1 c47 4 71 4 160 -4 41 -4 90 -3 109 2 25 6
48 4 85 -8 28 -9 79 -20 114 -24 35 -4 62 -10 60 -14 -2 -3 -22 -44 -44 -91
-23 -47 -48 -102 -55 -123 -12 -34 -16 -37 -41 -32 -59 13 -117 -103 -104
-209 6 -42 4 -55 -9 -66 -33 -28 -49 -74 -49 -145 0 -76 23 -135 72 -187 l26
-28 -18 -37 c-10 -21 -21 -67 -23 -103 -5 -58 -2 -73 22 -120 56 -111 164
-247 236 -297 47 -33 46 -37 -13 -165 l-41 -87 -76 77 c-42 42 -102 110 -134
150 -58 73 -107 112 -140 112 -35 0 -75 -30 -96 -73 -11 -23 -30 -99 -41 -167
-43 -265 -52 -306 -74 -350 -12 -25 -34 -52 -48 -59 -24 -14 -29 -13 -59 8
-34 24 -84 85 -106 131 -29 61 -7 124 96 275 64 93 87 153 112 290 9 50 13
188 14 475 0 406 -3 467 -26 480 -22 15 -70 -12 -97 -54 -45 -70 -128 -239
-148 -304 -10 -34 -21 -62 -24 -62 -12 0 -130 195 -130 214 0 34 28 133 49
174 11 20 56 89 101 152 80 113 140 216 140 243 0 31 23 39 95 31 39 -5 86 -7
105 -5z m2339 -40 c65 -34 134 -35 223 -5 l78 26 59 -45 c157 -120 285 -357
307 -570 5 -52 4 -62 -14 -78 -54 -49 -159 25 -276 193 -17 25 -34 40 -45 38
-37 -7 -44 -69 -49 -408 -5 -445 8 -508 153 -736 120 -187 152 -284 125 -379
-9 -34 -21 -50 -42 -61 -60 -31 -66 -23 -123 146 -63 189 -88 248 -173 413
-81 157 -105 181 -178 175 -37 -3 -63 -13 -91 -34 -53 -38 -123 -122 -152
-180 -27 -54 -27 -54 -66 55 l-26 72 34 42 c88 108 111 187 125 426 l7 114 33
-52 c46 -71 75 -77 116 -25 17 21 57 67 88 101 31 35 64 83 73 108 17 43 17
45 -5 89 -14 30 -61 82 -136 152 -126 118 -145 145 -199 284 -20 52 -39 100
-41 106 -3 7 14 13 45 17 28 3 63 13 78 21 15 8 29 15 30 16 1 0 20 -9 42 -21z
m691 -111 c19 -6 74 -8 122 -5 71 4 90 2 100 -11 7 -8 46 -30 87 -49 102 -47
157 -89 180 -137 27 -56 81 -328 81 -405 0 -52 -4 -66 -25 -86 -26 -27 -57
-32 -73 -12 -5 6 -15 39 -22 72 -31 157 -60 215 -108 215 -15 0 -34 -6 -42
-13 -43 -35 -45 -44 -51 -261 -5 -186 -8 -217 -27 -264 -15 -35 -22 -74 -22
-115 0 -80 39 -165 135 -292 94 -124 116 -178 123 -291 3 -69 1 -103 -12 -141
-17 -51 -78 -133 -90 -122 -4 4 -16 60 -27 125 -25 150 -41 198 -88 271 -79
122 -173 203 -233 203 -40 0 -86 -37 -119 -95 -17 -30 -34 -55 -38 -55 -9 0
-103 162 -125 213 -15 37 -15 38 7 47 30 13 49 29 74 66 42 59 93 292 93 422
l0 72 33 0 c77 0 138 124 115 235 -13 62 -107 271 -153 339 l-34 50 37 22 c20
12 44 20 52 17 8 -3 31 -10 50 -15z m-1834 -172 c3 -14 -2 -37 -13 -57 l-18
-34 -3 34 c-7 66 20 111 34 57z m227 -278 c-5 -155 -32 -542 -42 -588 l-7 -35
-31 42 c-18 26 -40 77 -53 125 -12 46 -31 100 -42 121 l-19 39 26 66 c15 37
41 105 57 152 45 127 91 215 108 205 4 -2 5 -60 3 -127z m-760 -66 c-1 -59 -4
-220 -6 -357 -3 -196 -7 -266 -21 -323 -10 -40 -22 -75 -27 -77 -28 -18 -164
159 -200 260 -29 80 -31 204 -4 219 87 52 108 83 171 246 66 170 63 165 77
151 8 -8 11 -45 10 -119z m1398 51 c20 -21 52 -60 72 -86 30 -40 34 -52 27
-75 -5 -15 -13 -111 -19 -213 -11 -208 -26 -267 -83 -326 -17 -18 -35 -33 -39
-33 -10 0 -57 113 -74 179 -19 73 -19 182 -1 309 8 53 17 137 21 187 9 129 22
137 96 58z m732 -82 c23 -16 54 -42 70 -58 26 -28 27 -31 13 -64 -7 -19 -26
-108 -41 -199 -15 -91 -35 -183 -44 -205 -20 -45 -71 -98 -71 -74 0 8 -7 113
-15 234 -18 275 -19 317 -1 360 18 43 35 44 89 6z"/>
</g>
</svg>
